<svg id="Layer_1" data-name="Layer 1" xmlns="http://www.w3.org/2000/svg" viewBox="0 0 728.86 171.47"><defs><style>.cls-1{fill:#007dbe;}.cls-2{fill:#f7941e;}</style></defs><title>SiteHawk_logo_Website</title><path class="cls-1" d="M598.45,82.81c-2.74-3.24-12.74-8.55-26.05-11.41l1.72,2.47A35.06,35.06,0,0,1,579,75.73c3.38,8.41,7.69,13.9,16.5,7.35h0Z"/><path class="cls-1" d="M597.93,142.14l-0.88-.39,55.9-4c9.46-10.07,25.2-29.37,45.32-52.14L649.8,82.08l-0.88-.39,56.43-4.07c7.36-8.2,15.22-16.73,23.51-25.36,0,0-121.57.06-160.61,0C584,58,607.49,68.14,609.57,71a10.9,10.9,0,0,1,1.18,11.81s26.7,9.68,27.76,16.93c1.17,8-8.9,20.86-9.84,22.05-0.11-1.61-1.77-7.77-2.56-8.47-26.84-1.89-52.53,16.52-72.49,53.68,43,13.62,75.26-7.29,91.31-21.53Z"/><path class="cls-2" d="M75.14,46.58H54.61L57.4,30.82c1.77-10,.9-14.36-4.86-14.36-7,0-9.18,5.47-11.27,17.34l-1.41,8c-1.57,8.91,1.1,14.62,4.1,21L58.42,91.57C62.58,100.7,65,108,62.6,121.48l-1.89,10.73c-6.45,33-17.74,37.46-37.24,37.46-20.76,0-26.32-9.82-22.21-33.11l2.86-16.22H24.75L21.83,137c-2,11.2-.93,15.75,5.44,15.75,7.6,0,9.89-5.93,12.22-19.18L41.18,124c1.69-9.6-1-15.29-4.07-22.38L22.45,70.79c-3.68-8.22-5-15.77-3.53-24.2l2-11.42C26,7,37.76,0,56.67,0c18.49,0,24.91,10.05,21,32.2Z"/><path class="cls-2" d="M106,52.29L85.82,166.92H65.76L86,52.29h20Zm9.4-49.79L111.8,23.07H90.5L94.13,2.51h21.29Z"/><path class="cls-2" d="M144.7,52.29h10.68l-2.53,14.39H142.17l-13.31,75.59c-1.42,8-.35,11.19,5.42,11.19a30.88,30.88,0,0,0,4.18-.46l-2.77,15.76a101.91,101.91,0,0,1-10.44.91c-14.19-.13-20.1-7.16-16.16-29l12.84-74h-8.22l2.53-14.39h8.22l3.95-22.38,21.66-8Z"/><path class="cls-2" d="M212.77,88.82c4.87-27.62-.09-39.28-20.86-39.28-21.37,0-30.37,11.2-35.32,39.28l-7.32,41.57c-4.92,27.86.14,39,21.3,39,18.5,0,29.84-10.49,33.9-33.57l1.33-7.53h-20l-1.73,9.82c-2.07,11.65-4.67,17.11-10.84,17.11-6.78,0-7.05-5.45-5-17.11l4-22.6h35.8Zm-18.55-8-3.67,20.78H174.72l3.66-20.78c2.09-11.87,4.51-17.34,11.09-17.34,6.36,0,6.83,5.47,4.74,17.34"/><polygon class="cls-2" points="264.67 2.51 252.19 73.3 272.94 73.3 285.43 2.51 306.5 2.51 277.5 166.92 256.43 166.92 270 89.97 249.25 89.97 235.68 166.92 214.88 166.92 243.87 2.51 264.67 2.51"/><path class="cls-2" d="M359.59,80.39c3.87-21.93-2.71-30.84-21.39-30.84-19.52,0-29.14,8.45-33.1,30.84l-0.47,2.73h18.82l0.83-4.8c1.75-9.82,4.6-14.39,10.15-14.39,6.58,0,6.93,5,4.78,17.13l-2.33,13.26c-24.44,1.15-37.68,8-41.08,27.17l-3.46,19.64c-3.42,18.49,1.64,27.31,14.47,27.71,6.94,0.22,13-1.53,18.75-9.53l-0.46,7.62h19.22Zm-25.21,28.07-5.26,29.91c-2,11.44-4.58,16.67-10.76,16.67-6.36,0-7-5.47-5.07-16.67l2.59-14.62c2-11.4,6.48-14.6,18.51-15.29"/><polygon class="cls-2" points="392.33 52.29 384.5 144.27 385.34 144.27 412.03 52.29 440.29 52.29 432.2 144.27 433.23 144.27 457.71 52.29 479.5 52.29 445.1 166.92 415.65 166.92 423.21 72.5 422.09 72.5 394.77 166.92 366.6 166.92 371.42 52.29 392.33 52.29"/><polygon class="cls-2" points="518.95 2.51 501.85 98.5 528.46 52.29 549.42 52.29 518.93 102.77 530.24 166.92 508.87 166.92 500.67 106.17 489.95 166.92 469.54 166.92 498.53 2.51 518.95 2.51"/><path class="cls-1" d="M680.83,155.58a10.73,10.73,0,1,1-10.57-10.76A10.73,10.73,0,0,1,680.83,155.58Zm-19.9,0a9.18,9.18,0,1,0,9.3-9.33A9.28,9.28,0,0,0,660.92,155.58Zm9.73-6.06c2.8,0,4.32,1.18,4.32,3.39a3.07,3.07,0,0,1-2.15,3c1.55,0.56,1.93,1.31,2,3.89a4.54,4.54,0,0,0,.31,1.93h-1.87a5.92,5.92,0,0,1-.31-2.3c-0.09-1.46-.28-2.05-0.84-2.43a3.86,3.86,0,0,0-2.15-.47h-2.52v5.19h-1.93V149.51h5.13Zm-3.2,5.75h2.64c2,0,3-.75,3-2.27s-0.87-2.21-2.74-2.21h-2.86v4.48Z"/></svg>